<svg id="visual" viewBox="0 0 900 600" width="900" height="600" xmlns="http://www.w3.org/2000/svg" xmlns:xlink="http://www.w3.org/1999/xlink" version="1.1"><rect x="0" y="0" width="900" height="600" fill="#0D0D0D"></rect><path d="M0 299L21.5 299.2C43 299.3 86 299.7 128.8 303.3C171.7 307 214.3 314 257.2 319.8C300 325.7 343 330.3 385.8 324.8C428.7 319.3 471.3 303.7 514.2 322.7C557 341.7 600 395.3 642.8 404C685.7 412.7 728.3 376.3 771.2 369.8C814 363.3 857 386.7 878.5 398.3L900 410L900 601L878.5 601C857 601 814 601 771.2 601C728.3 601 685.7 601 642.8 601C600 601 557 601 514.2 601C471.3 601 428.7 601 385.8 601C343 601 300 601 257.2 601C214.3 601 171.7 601 128.8 601C86 601 43 601 21.5 601L0 601Z" fill="#090c2a"></path><path d="M0 346L21.5 364.8C43 383.7 86 421.3 128.8 437.5C171.7 453.7 214.3 448.3 257.2 441.7C300 435 343 427 385.8 422.7C428.7 418.3 471.3 417.7 514.2 425.5C557 433.3 600 449.7 642.8 451C685.7 452.3 728.3 438.7 771.2 417.8C814 397 857 369 878.5 355L900 341L900 601L878.5 601C857 601 814 601 771.2 601C728.3 601 685.7 601 642.8 601C600 601 557 601 514.2 601C471.3 601 428.7 601 385.8 601C343 601 300 601 257.2 601C214.3 601 171.7 601 128.8 601C86 601 43 601 21.5 601L0 601Z" fill="#081848"></path><path d="M0 460L21.5 466.5C43 473 86 486 128.8 480.3C171.7 474.7 214.3 450.3 257.2 431C300 411.7 343 397.3 385.8 408.5C428.7 419.7 471.3 456.3 514.2 474.5C557 492.7 600 492.3 642.8 477.5C685.7 462.7 728.3 433.3 771.2 420C814 406.7 857 409.3 878.5 410.7L900 412L900 601L878.5 601C857 601 814 601 771.2 601C728.3 601 685.7 601 642.8 601C600 601 557 601 514.2 601C471.3 601 428.7 601 385.8 601C343 601 300 601 257.2 601C214.3 601 171.7 601 128.8 601C86 601 43 601 21.5 601L0 601Z" fill="#082268"></path><path d="M0 480L21.5 483.3C43 486.7 86 493.3 128.8 493.2C171.7 493 214.3 486 257.2 488.2C300 490.3 343 501.7 385.8 498.7C428.7 495.7 471.3 478.3 514.2 467.2C557 456 600 451 642.8 453.5C685.7 456 728.3 466 771.2 474.5C814 483 857 490 878.5 493.5L900 497L900 601L878.5 601C857 601 814 601 771.2 601C728.3 601 685.7 601 642.8 601C600 601 557 601 514.2 601C471.3 601 428.7 601 385.8 601C343 601 300 601 257.2 601C214.3 601 171.7 601 128.8 601C86 601 43 601 21.5 601L0 601Z" fill="#0e2c8a"></path><path d="M0 535L21.5 524.3C43 513.7 86 492.3 128.8 482.5C171.7 472.7 214.3 474.3 257.2 486.8C300 499.3 343 522.7 385.8 526C428.7 529.3 471.3 512.7 514.2 510C557 507.3 600 518.7 642.8 525C685.7 531.3 728.3 532.7 771.2 528.8C814 525 857 516 878.5 511.5L900 507L900 601L878.5 601C857 601 814 601 771.2 601C728.3 601 685.7 601 642.8 601C600 601 557 601 514.2 601C471.3 601 428.7 601 385.8 601C343 601 300 601 257.2 601C214.3 601 171.7 601 128.8 601C86 601 43 601 21.5 601L0 601Z" fill="#1c35ad"></path><path d="M0 565L21.5 560C43 555 86 545 128.8 541.8C171.7 538.7 214.3 542.3 257.2 538.7C300 535 343 524 385.8 522.5C428.7 521 471.3 529 514.2 539.3C557 549.7 600 562.3 642.8 566C685.7 569.7 728.3 564.3 771.2 555.5C814 546.7 857 534.3 878.5 528.2L900 522L900 601L878.5 601C857 601 814 601 771.2 601C728.3 601 685.7 601 642.8 601C600 601 557 601 514.2 601C471.3 601 428.7 601 385.8 601C343 601 300 601 257.2 601C214.3 601 171.7 601 128.8 601C86 601 43 601 21.5 601L0 601Z" fill="#2f3dd0"></path></svg>