<svg id="visual" viewBox="0 0 900 600" width="900" height="600" xmlns="http://www.w3.org/2000/svg" xmlns:xlink="http://www.w3.org/1999/xlink" version="1.1"><rect x="0" y="0" width="900" height="600" fill="#0D0D0D"></rect><path d="M0 251L21.5 253.7C43 256.3 86 261.7 128.8 271.3C171.7 281 214.3 295 257.2 304C300 313 343 317 385.8 315.2C428.7 313.3 471.3 305.7 514.2 313C557 320.3 600 342.7 642.8 352.8C685.7 363 728.3 361 771.2 347.2C814 333.3 857 307.7 878.5 294.8L900 282L900 601L878.5 601C857 601 814 601 771.2 601C728.3 601 685.7 601 642.8 601C600 601 557 601 514.2 601C471.3 601 428.7 601 385.8 601C343 601 300 601 257.2 601C214.3 601 171.7 601 128.8 601C86 601 43 601 21.5 601L0 601Z" fill="#222a59"></path><path d="M0 414L21.5 417C43 420 86 426 128.8 411C171.7 396 214.3 360 257.2 340.7C300 321.3 343 318.7 385.8 333C428.7 347.3 471.3 378.7 514.2 390.5C557 402.3 600 394.7 642.8 387.3C685.7 380 728.3 373 771.2 362.8C814 352.7 857 339.3 878.5 332.7L900 326L900 601L878.5 601C857 601 814 601 771.2 601C728.3 601 685.7 601 642.8 601C600 601 557 601 514.2 601C471.3 601 428.7 601 385.8 601C343 601 300 601 257.2 601C214.3 601 171.7 601 128.8 601C86 601 43 601 21.5 601L0 601Z" fill="#2e357f"></path><path d="M0 449L21.5 438.3C43 427.7 86 406.3 128.8 406.5C171.7 406.7 214.3 428.3 257.2 428.2C300 428 343 406 385.8 407.3C428.7 408.7 471.3 433.3 514.2 448.5C557 463.7 600 469.3 642.8 456C685.7 442.7 728.3 410.3 771.2 401.7C814 393 857 408 878.5 415.5L900 423L900 601L878.5 601C857 601 814 601 771.2 601C728.3 601 685.7 601 642.8 601C600 601 557 601 514.2 601C471.3 601 428.7 601 385.8 601C343 601 300 601 257.2 601C214.3 601 171.7 601 128.8 601C86 601 43 601 21.5 601L0 601Z" fill="#413ea6"></path><path d="M0 476L21.5 483.3C43 490.7 86 505.3 128.8 507.8C171.7 510.3 214.3 500.7 257.2 498.5C300 496.3 343 501.7 385.8 495.2C428.7 488.7 471.3 470.3 514.2 471.3C557 472.3 600 492.7 642.8 493.5C685.7 494.3 728.3 475.7 771.2 463.2C814 450.7 857 444.3 878.5 441.2L900 438L900 601L878.5 601C857 601 814 601 771.2 601C728.3 601 685.7 601 642.8 601C600 601 557 601 514.2 601C471.3 601 428.7 601 385.8 601C343 601 300 601 257.2 601C214.3 601 171.7 601 128.8 601C86 601 43 601 21.5 601L0 601Z" fill="#5c45cd"></path><path d="M0 510L21.5 508.7C43 507.3 86 504.7 128.8 509C171.7 513.3 214.3 524.7 257.2 534.8C300 545 343 554 385.8 553.3C428.7 552.7 471.3 542.3 514.2 538.2C557 534 600 536 642.8 536.3C685.7 536.7 728.3 535.3 771.2 533.2C814 531 857 528 878.5 526.5L900 525L900 601L878.5 601C857 601 814 601 771.2 601C728.3 601 685.7 601 642.8 601C600 601 557 601 514.2 601C471.3 601 428.7 601 385.8 601C343 601 300 601 257.2 601C214.3 601 171.7 601 128.8 601C86 601 43 601 21.5 601L0 601Z" fill="#7e49f2"></path></svg>