<svg id="visual" viewBox="0 0 900 600" width="900" height="600" xmlns="http://www.w3.org/2000/svg" xmlns:xlink="http://www.w3.org/1999/xlink" version="1.1"><rect x="0" y="0" width="900" height="600" fill="#222A59"></rect><path d="M0 279L129 171L257 231L386 154L514 307L643 274L771 313L900 161L900 601L771 601L643 601L514 601L386 601L257 601L129 601L0 601Z" fill="#7e49f2"></path><path d="M0 259L129 308L257 368L386 267L514 331L643 303L771 275L900 291L900 601L771 601L643 601L514 601L386 601L257 601L129 601L0 601Z" fill="#6441d2"></path><path d="M0 368L129 407L257 418L386 393L514 372L643 429L771 316L900 392L900 601L771 601L643 601L514 601L386 601L257 601L129 601L0 601Z" fill="#4d38b2"></path><path d="M0 395L129 450L257 418L386 466L514 417L643 430L771 394L900 416L900 601L771 601L643 601L514 601L386 601L257 601L129 601L0 601Z" fill="#382e92"></path><path d="M0 534L129 489L257 501L386 515L514 496L643 516L771 514L900 539L900 601L771 601L643 601L514 601L386 601L257 601L129 601L0 601Z" fill="#262473"></path></svg>